<svg width="22" height="22" viewBox="0 0 22 22" fill="none" xmlns="http://www.w3.org/2000/svg">
<path d="M20.3755 13.0625C21.0786 13.9531 21.5005 15.0781 21.4536 16.25C21.4536 19.1562 19.1099 21.5 16.2036 21.5C15.0317 21.5 13.9067 21.125 13.0161 20.4219C12.3599 20.5625 11.6567 20.6562 10.9536 20.6562C5.65674 20.6562 1.34424 16.3438 1.34424 11C1.34424 10.3438 1.43799 9.64062 1.57861 8.98438C0.875488 8.09375 0.500488 6.96875 0.500488 5.75C0.500488 2.89062 2.84424 0.5 5.75049 0.5C6.92236 0.5 8.04736 0.921875 8.93799 1.625C9.59424 1.48438 10.2974 1.39062 11.0005 1.39062C16.2974 1.39062 20.6099 5.70312 20.6099 11C20.6099 11.7031 20.5161 12.4062 20.3755 13.0625ZM11.2817 17.375C13.8599 17.375 16.5317 16.0625 16.5317 13.2969C16.5317 10.9062 14.188 10.1094 12.2661 9.6875C10.0161 9.125 9.03174 9.03125 9.03174 8.14062C9.03174 7.39062 9.78174 7.0625 11.0005 7.0625C13.1567 7.0625 13.2036 8.65625 14.5161 8.65625C15.4067 8.65625 15.9224 7.95312 15.9224 7.15625C15.9224 5.5625 13.2974 4.53125 10.7192 4.53125C8.37549 4.53125 5.60986 5.5625 5.60986 8.375C5.60986 11.4219 8.23486 11.7031 11.1411 12.4531C12.3599 12.7344 13.1099 12.875 13.1099 13.7656C13.1099 14.4688 12.313 14.9844 11.1411 14.9844C8.60986 14.9844 8.46924 12.875 7.01611 12.875C6.03174 12.875 5.60986 13.5781 5.60986 14.3281C5.60986 16.0156 8.18799 17.375 11.2817 17.375Z" fill="white"/>
</svg>
