<svg width="25" height="24" viewBox="0 0 25 24" fill="none" xmlns="http://www.w3.org/2000/svg">
<path d="M12.5005 0.375C18.9224 0.375 24.1255 5.57812 24.1255 12C24.1255 18.4219 18.9224 23.625 12.5005 23.625C6.07861 23.625 0.875488 18.4219 0.875488 12C0.875488 5.57812 6.07861 0.375 12.5005 0.375ZM18.1724 8.34375C18.3599 7.59375 17.8911 7.26562 17.3755 7.45312L6.17236 11.7656C5.42236 12.0469 5.42236 12.5156 6.03174 12.7031L8.89111 13.5938L15.5474 9.375C15.8755 9.1875 16.1567 9.32812 15.9224 9.51562L10.5317 14.3906L10.3442 17.3438C10.6255 17.3438 10.7661 17.2031 10.9067 17.0625L12.313 15.7031L15.2192 17.8594C15.7817 18.1406 16.1567 18 16.2974 17.3438L18.1724 8.34375Z" fill="white"/>
</svg>
